# Blender 5.0.1
# www.blender.org
o Cube
v -10.0 -10.0 10.0
v -10.0 10.0 10.0
v -10.0 -10.0 -10.0
v -10.0 10.0 -10.0
v 10.0 -10.0 10.0
v 10.0 10.0 10.0
v 10.0 -10.0 -10.0
v 10.0 10.0 -10.0
v -2.814839 -9.981069 10.0
v -2.814839 -2.522538 10.0
v 2.814839 -9.981069 10.0
v 2.814839 -2.522538 10.0
v -2.814839 -9.981069 22.809559
v -2.814839 -2.522538 22.809559
v 2.814839 -9.981069 22.809559
v 2.814839 -2.522538 22.809559
v -2.814839 -9.871453 31.271778
v -2.814839 0.994476 31.271778
v 2.814839 -9.871453 31.271778
v 2.814839 0.994476 31.271778
v -2.814839 -9.871453 32.298435
v -2.814839 0.994476 32.298435
v 2.814839 -9.871453 32.298435
v 2.814839 0.994476 32.298435
v -2.814839 -8.590866 32.298435
v -2.814839 2.275063 32.298435
v 2.814839 -8.590866 32.298435
v 2.814839 2.275063 32.298435
v -2.814839 -8.590866 34.957962
v -2.814839 2.275063 34.957962
v 2.814839 -8.590866 34.957962
v 2.814839 2.275063 34.957962
v -2.814839 -7.513378 34.957962
v -2.814839 3.35255 34.957962
v 2.814839 -7.513378 34.957962
v 2.814839 3.35255 34.957962
v -7.780104 -7.513378 37.748749
v -7.780104 7.476921 37.748749
v 7.780104 -7.513378 37.748749
v 7.780104 7.476921 37.748749
v -7.780104 -7.513378 55.017052
v -7.780104 7.476921 55.017052
v 7.780104 -7.513378 55.017052
v 7.780104 7.476921 55.017052
v 5.513122 7.94478 40.264587
v -5.513122 7.94478 40.264587
v 5.513122 7.94478 52.501217
v -5.513122 7.94478 52.501217
v 5.513122 9.007135 40.264587
v -5.513122 9.007135 40.264587
v 5.513122 9.007135 52.501217
v -5.513122 9.007135 52.501217
v 4.717769 9.01802 41.147251
v -4.717769 9.01802 41.147251
v 4.717769 9.01802 51.618557
v -4.717769 9.01802 51.618557
v 4.717769 7.990138 41.147251
v -4.717769 7.990138 41.147251
v 4.717769 7.990138 51.618557
v -4.717769 7.990138 51.618557
v -8.446079 10.0 8.446079
v -8.446079 10.0 -8.446079
v 8.446079 10.0 -8.446079
v 8.446079 10.0 8.446079
v -8.446079 11.636013 8.446079
v -8.446079 11.636013 -8.446079
v 8.446079 11.636013 -8.446079
v 8.446079 11.636013 8.446079
v -7.331651 11.420147 7.331651
v -7.331651 11.420147 -7.331651
v 7.331651 11.420147 -7.331651
v 7.331651 11.420147 7.331651
v -7.331651 10.033716 7.331651
v -7.331651 10.033716 -7.331651
v 7.331651 10.033716 -7.331651
v 7.331651 10.033716 7.331651
vn 1.0000 -0.0000 -0.0000
vn -0.0000 -0.0000 1.0000
vn -1.0000 -0.0000 -0.0000
vn 0.0005 -0.0000 -1.0000
vn -0.0000 1.0000 -0.0000
vn -0.0000 -1.0000 -0.0000
vn -0.0000 0.1883 -0.9821
vn -0.0000 -0.0003 -1.0000
vn -0.0005 -0.0000 -1.0000
vn -0.0000 -0.9234 0.3838
vn -0.0000 0.9999 -0.0130
vn -0.0000 -0.0000 -1.0000
vn -0.0000 -0.5604 0.8282
vn -0.4900 -0.0000 0.8717
vn 0.4900 -0.0000 0.8717
vn -0.0000 -0.9831 0.1828
vn 0.2021 -0.9794 -0.0000
vn -0.2021 -0.9794 -0.0000
vn -0.0000 -0.9831 -0.1828
vn 0.0137 -0.9999 -0.0000
vn -0.0000 -0.9999 0.0123
vn -0.0137 -0.9999 -0.0000
vn -0.0000 -0.9999 -0.0123
vn -0.0000 -0.9818 0.1902
vn -0.0000 -0.9818 -0.1902
vn 0.1902 -0.9818 -0.0000
vn -0.1902 -0.9818 -0.0000
vt 0.375000 0.000000
vt 0.375000 0.250000
vt 0.625000 0.250000
vt 0.625000 0.000000
vt 0.375000 0.500000
vt 0.625000 0.500000
vt 0.375000 0.750000
vt 0.625000 0.750000
vt 0.125000 0.500000
vt 0.125000 0.750000
vt 0.875000 0.750000
vt 0.875000 0.500000
s 0
f 1/1/1 3/2/1 4/3/1 2/4/1
f 3/2/2 7/5/2 8/6/2 4/3/2
f 7/5/3 5/7/3 6/8/3 8/6/3
f 1/1/4 2/4/4 10/4/4 9/1/4
f 3/9/5 1/10/5 5/7/5 7/5/5
f 8/6/6 6/8/6 64/8/6 63/6/6
f 5/7/7 1/10/7 9/10/7 11/7/7
f 2/11/8 6/8/8 12/8/8 10/11/8
f 6/8/9 5/7/9 11/7/9 12/8/9
f 11/7/5 9/10/5 13/10/5 15/7/5
f 9/1/1 10/4/1 14/4/1 13/1/1
f 10/11/6 12/8/6 16/8/6 14/11/6
f 12/8/3 11/7/3 15/7/3 16/8/3
f 14/11/10 16/8/10 20/8/10 18/11/10
f 16/8/3 15/7/3 19/7/3 20/8/3
f 15/7/11 13/10/11 17/10/11 19/7/11
f 13/1/1 14/4/1 18/4/1 17/1/1
f 19/7/5 17/10/5 21/10/5 23/7/5
f 17/1/1 18/4/1 22/4/1 21/1/1
f 18/11/6 20/8/6 24/8/6 22/11/6
f 20/8/3 19/7/3 23/7/3 24/8/3
f 21/1/5 22/4/5 26/4/5 25/1/5
f 22/11/2 24/8/2 28/8/2 26/11/2
f 24/8/2 23/7/2 27/7/2 28/8/2
f 23/7/12 21/10/12 25/10/12 27/7/12
f 26/11/6 28/8/6 32/8/6 30/11/6
f 28/8/3 27/7/3 31/7/3 32/8/3
f 27/7/5 25/10/5 29/10/5 31/7/5
f 25/1/1 26/4/1 30/4/1 29/1/1
f 31/7/12 29/10/12 33/10/12 35/7/12
f 29/1/5 30/4/5 34/4/5 33/1/5
f 30/11/2 32/8/2 36/8/2 34/11/2
f 32/8/5 31/7/5 35/7/5 36/8/5
f 34/11/13 36/8/13 40/8/13 38/11/13
f 36/8/14 35/7/14 39/7/14 40/8/14
f 35/7/5 33/10/5 37/10/5 39/7/5
f 33/1/15 34/4/15 38/4/15 37/1/15
f 39/7/5 37/10/5 41/10/5 43/7/5
f 37/1/1 38/4/1 42/4/1 41/1/1
f 38/11/16 40/8/16 45/8/16 46/11/16
f 40/8/3 39/7/3 43/7/3 44/8/3
f 41/10/12 42/11/12 44/8/12 43/7/12
f 48/4/1 46/4/1 50/4/1 52/4/1
f 42/4/17 38/4/17 46/4/17 48/4/17
f 40/8/18 44/8/18 47/8/18 45/8/18
f 44/8/19 42/11/19 48/11/19 47/8/19
f 52/4/20 50/4/20 54/4/20 56/4/20
f 46/11/2 45/8/2 49/8/2 50/11/2
f 45/8/3 47/8/3 51/8/3 49/8/3
f 47/8/12 48/11/12 52/11/12 51/8/12
f 56/4/3 54/4/3 58/4/3 60/4/3
f 50/11/21 49/8/21 53/8/21 54/11/21
f 49/8/22 51/8/22 55/8/22 53/8/22
f 51/8/23 52/11/23 56/11/23 55/8/23
f 58/11/6 57/8/6 59/8/6 60/11/6
f 54/11/12 53/8/12 57/8/12 58/11/12
f 53/8/1 55/8/1 59/8/1 57/8/1
f 55/8/2 56/11/2 60/11/2 59/8/2
f 63/6/3 64/8/3 68/8/3 67/6/3
f 2/4/6 4/3/6 62/3/6 61/4/6
f 6/8/6 2/11/6 61/11/6 64/8/6
f 4/3/6 8/6/6 63/6/6 62/3/6
f 68/8/24 65/11/24 69/11/24 72/8/24
f 61/4/1 62/3/1 66/3/1 65/4/1
f 64/8/12 61/11/12 65/11/12 68/8/12
f 62/3/2 63/6/2 67/6/2 66/3/2
f 71/6/1 72/8/1 76/8/1 75/6/1
f 66/3/25 67/6/25 71/6/25 70/3/25
f 67/6/26 68/8/26 72/8/26 71/6/26
f 65/4/27 66/3/27 70/3/27 69/4/27
f 75/6/6 76/8/6 73/11/6 74/12/6
f 69/4/3 70/3/3 74/3/3 73/4/3
f 72/8/2 69/11/2 73/11/2 76/8/2
f 70/3/12 71/6/12 75/6/12 74/3/12
